<?xml version="1.0" standalone="yes"?><svg xmlns="http://www.w3.org/2000/svg" xmlns:xlink="http://www.w3.org/1999/xlink" viewBox="134.333 134.333 243.333 243.333" style="zoom: 1;"><defs><linearGradient id="a" x1="215.6" x2="285.3" y1="215.1" y2="335.7" gradientUnits="userSpaceOnUse"><stop offset="0" stop-color="#f87171"></stop><stop offset=".5" stop-color="#f87171"></stop><stop offset="1" stop-color="#dc2626"></stop></linearGradient><linearGradient id="b" x1="222.2" x2="289.8" y1="276.1" y2="393.3" gradientUnits="userSpaceOnUse"><stop offset="0" stop-color="#f3f7fe"></stop><stop offset=".5" stop-color="#f3f7fe"></stop><stop offset="1" stop-color="#deeafb"></stop></linearGradient><linearGradient xlink:href="#b" id="c" x1="245" x2="267" y1="151.6" y2="189.7"></linearGradient></defs><path d="M256,204.7 a83,83 0 0183 83 0,0 v17 H173 v-17 a83,83 0 0183 -83 0,0 " stroke="#ef4444" stroke-miterlimit="10" stroke-width="4" fill="url(#a)" visibility="hidden"></path><path d="M160,317.5 v34.4 c0,6.3 7.1,11.4 16,11.4 h160 c8.9,0 16,-5.1 16,-11.4 v-34.4 c0,-6.3 -7.1,-11.4 -16,-11.4 H176 c-8.9,0 -16,5 -16,11.4 " stroke="#e6effc" stroke-miterlimit="10" stroke-width="4" fill="url(#b)" visibility="hidden"></path><circle cx="256" cy="170.7" r="22" fill="url(#c)" stroke="#e6effc" stroke-miterlimit="10" stroke-width="4" visibility="hidden"><animateTransform id="x" fill="freeze" additive="sum" attributeName="transform" begin="0s; x.end+2.58s" calcMode="spline" dur=".42s" keySplines=".42, 0, .58, 1; .42, 0, .58, 1; .42, 0, .58, 1" keyTimes="0; .4; .8; 1" type="translate" values="0 0; 0 -9; 0 3; 0 0" visibility="hidden"></animateTransform><animateTransform id="y" fill="freeze" additive="sum" attributeName="transform" begin="1s; y.end+2.25s" calcMode="spline" dur=".75s" keySplines=".42, 0, .58, 1; .42, 0, .58, 1; .42, 0, .58, 1; .42, 0, .58, 1; .42, 0, .58, 1" keyTimes="0; .22; .44; .67; .89; 1" type="rotate" values="0 256 256; -15 256 256; 9 256 256; -9 256 256; 6 256 256; 0 256 256" visibility="hidden"></animateTransform></circle></svg>